#N canvas 911 329 891 532 12;
#X obj 288 65 receive fm_ratio;
#X obj 441 65 receive fm_index;
#X obj 598 96 mtof;
#X obj 598 65 receive fm_pitch;
#X obj 288 366 osc~;
#X obj 287 208 osc~;
#X obj 288 329 +~;
#X obj 288 290 *~;
#X obj 286 166 *~;
#X obj 287 457 dac~;
#X obj 397 375 line~;
#X msg 397 347 0 \, 1 1000;
#X obj 397 325 bng 15 250 50 0 empty empty empty 17 7 0 10 #fcfcfc
#000000 #000000;
#X obj 285 412 *~;
#X obj 397 299 receive triggerOn;
#X obj 534 327 bng 15 250 50 0 empty empty empty 17 7 0 10 #fcfcfc
#000000 #000000;
#X msg 534 349 1 \, 0 1000;
#X obj 534 301 receive triggerOff;
#X connect 0 0 8 0;
#X connect 1 0 7 1;
#X connect 2 0 6 1;
#X connect 2 0 8 1;
#X connect 3 0 2 0;
#X connect 4 0 13 0;
#X connect 5 0 7 0;
#X connect 6 0 4 0;
#X connect 7 0 6 0;
#X connect 8 0 5 0;
#X connect 10 0 13 1;
#X connect 11 0 10 0;
#X connect 12 0 11 0;
#X connect 13 0 9 0;
#X connect 13 0 9 1;
#X connect 14 0 12 0;
#X connect 15 0 16 0;
#X connect 16 0 10 0;
#X connect 17 0 15 0;
